<svg width="16" height="20" viewBox="0 0 16 20" fill="none" xmlns="http://www.w3.org/2000/svg">
<path fill-rule="evenodd" clip-rule="evenodd" d="M0.369355 1.45359C0.369883 0.650268 1.02153 -0.000527727 1.82486 3.21112e-07C5.58358 0.00247075 9.18765 1.49671 11.8455 4.15453C14.5033 6.81235 15.9975 10.4164 16 14.1751C16.0005 14.9785 15.3497 15.6301 14.5464 15.6306C13.7431 15.6312 13.0914 14.9804 13.0909 14.177C13.0889 11.1892 11.9011 8.3243 9.78842 6.21157C7.6757 4.09885 4.81079 2.91106 1.82295 2.9091C1.01962 2.90857 0.368827 2.25692 0.369355 1.45359Z" fill="#FF7534"/>
<path fill-rule="evenodd" clip-rule="evenodd" d="M0.369354 7.48043C0.369354 6.6771 1.02058 6.02588 1.8239 6.02588C2.89419 6.02588 3.954 6.23669 4.94281 6.64627C5.93163 7.05585 6.83009 7.65618 7.5869 8.41299C8.3437 9.16979 8.94403 10.0683 9.35361 11.0571C9.7632 12.0459 9.974 13.1057 9.974 14.176C9.974 14.9793 9.32278 15.6305 8.51945 15.6305C7.71613 15.6305 7.0649 14.9793 7.0649 14.176C7.0649 13.4877 6.92934 12.8062 6.66596 12.1703C6.40257 11.5345 6.01652 10.9567 5.52985 10.47C5.04318 9.98336 4.46542 9.59731 3.82955 9.33393C3.19368 9.07054 2.51216 8.93498 1.8239 8.93498C1.02058 8.93498 0.369354 8.28376 0.369354 7.48043Z" fill="#FF7534"/>
<path d="M1.82397 15.5154C2.56354 15.5154 3.16308 14.9158 3.16308 14.1763C3.16308 13.4367 2.56354 12.8372 1.82397 12.8372C1.0844 12.8372 0.484863 13.4367 0.484863 14.1763C0.484863 14.9158 1.0844 15.5154 1.82397 15.5154Z" fill="#FF7534"/>
</svg>
