<svg width="16" height="21" viewBox="0 0 16 21" fill="none" xmlns="http://www.w3.org/2000/svg">
<g clip-path="url(#clip0_4309_1267)">
<path d="M6.22666 7.61234C5.59234 6.81146 5.27825 5.80344 5.3454 4.784C5.41254 3.76455 5.85611 2.80643 6.59 2.09567L7.012 1.673C7.72281 0.939399 8.68084 0.496063 9.70013 0.429046C10.7194 0.36203 11.7272 0.676115 12.528 1.31034C12.9563 1.6655 13.3051 2.10686 13.5516 2.6057C13.798 3.10454 13.9368 3.64968 13.9587 4.20567C13.9821 4.75926 13.8905 5.31169 13.6895 5.82806C13.4886 6.34443 13.1828 6.81351 12.7913 7.20567L12.1247 7.87234C11.3733 8.62207 10.3554 9.0435 9.294 9.04434C9.23666 9.04434 9.17933 9.043 9.122 9.04034C8.56625 9.01859 8.02129 8.88022 7.52248 8.63421C7.02368 8.3882 6.58219 8.04004 6.22666 7.61234ZM12.5047 11.0837C12.0456 11.0826 11.5908 11.1725 11.1666 11.3481C10.7424 11.5237 10.3573 11.7817 10.0333 12.107C9.09203 13.0537 7.97227 13.8043 6.73889 14.3152C5.50551 14.8262 4.18302 15.0874 2.848 15.0837H2.08133C1.9334 15.0839 1.78873 15.0402 1.66565 14.9581C1.54257 14.8761 1.44661 14.7593 1.38992 14.6227C1.33324 14.4861 1.31838 14.3357 1.34724 14.1906C1.37609 14.0455 1.44735 13.9122 1.552 13.8077L2.01866 13.341C3.17617 13.2633 4.26602 12.7677 5.08533 11.9463L7.12133 9.91034C6.38192 9.58183 5.72695 9.08941 5.206 8.47034C4.91484 8.12125 4.6722 7.73441 4.48466 7.32034L2.46666 9.33634C1.64507 10.1555 1.14938 11.2454 1.072 12.403L0.60533 12.8697C0.315629 13.1612 0.118747 13.532 0.0395182 13.9352C-0.0397104 14.3385 0.00226361 14.7562 0.160146 15.1356C0.318027 15.5151 0.584745 15.8393 0.926655 16.0673C1.26856 16.2954 1.67035 16.417 2.08133 16.417H2.848C4.35811 16.4211 5.85404 16.1257 7.2492 15.5478C8.64437 14.9699 9.91108 14.121 10.976 13.0503C11.2783 12.7481 11.6635 12.5422 12.0828 12.4588C12.5021 12.3753 12.9367 12.4181 13.3317 12.5816C13.7267 12.7452 14.0643 13.0221 14.302 13.3775C14.5396 13.7329 14.6665 14.1508 14.6667 14.5783V15.7503C14.6667 15.9271 14.7369 16.0967 14.8619 16.2217C14.9869 16.3468 15.1565 16.417 15.3333 16.417C15.5101 16.417 15.6797 16.3468 15.8047 16.2217C15.9298 16.0967 16 15.9271 16 15.7503V14.5783C15.9988 13.6518 15.6301 12.7635 14.9748 12.1084C14.3196 11.4532 13.4312 11.0847 12.5047 11.0837Z" fill="#979EA9"/>
</g>
<defs>
<clipPath id="clip0_4309_1267">
<rect width="16" height="16" fill="white" transform="translate(0 0.416992)"/>
</clipPath>
</defs>
</svg>
